<?xml version="1.0" standalone="no"?>
<!DOCTYPE svg PUBLIC "-//W3C//DTD SVG 20010904//EN"
 "http://www.w3.org/TR/2001/REC-SVG-20010904/DTD/svg10.dtd">
<svg version="1.0" xmlns="http://www.w3.org/2000/svg"
 width="596.000000pt" height="608.000000pt" viewBox="0 0 596.000000 608.000000"
 preserveAspectRatio="xMidYMid meet">

<g transform="translate(0.000000,608.000000) scale(0.100000,-0.100000)"
fill="#000000" stroke="none">
<path d="M2074 5988 c-60 -45 -197 -149 -304 -232 -107 -82 -243 -186 -301
-230 -480 -366 -569 -436 -569 -449 0 -7 9 -57 19 -112 11 -55 56 -289 101
-520 44 -231 112 -582 150 -781 39 -198 70 -371 69 -385 0 -19 -24 -42 -112
-106 -62 -46 -148 -111 -193 -145 -77 -61 -125 -97 -354 -272 -326 -248 -570
-438 -570 -444 0 -7 124 -654 209 -1097 27 -137 70 -362 96 -500 26 -137 53
-255 59 -262 6 -6 110 -39 231 -73 121 -33 299 -83 395 -110 96 -27 343 -97
549 -155 l375 -105 170 130 c94 72 209 160 256 196 47 36 135 104 195 150 61
45 193 147 295 225 102 78 217 165 255 195 l70 53 170 -48 c94 -27 276 -78
405 -114 129 -36 379 -107 555 -156 176 -50 332 -93 346 -96 21 -5 41 5 110
57 77 59 250 191 274 211 6 4 96 73 200 153 105 79 214 163 244 187 69 53 213
163 359 274 61 47 114 88 117 93 2 4 -9 76 -26 161 -16 85 -81 422 -144 749
-171 889 -184 953 -192 960 -4 4 -51 19 -103 33 -101 28 -331 92 -755 212
-143 40 -344 97 -448 126 -159 44 -188 55 -192 73 -3 12 -48 246 -101 521
-186 974 -244 1269 -252 1276 -4 5 -90 31 -191 59 -101 28 -360 101 -575 161
-215 61 -472 133 -571 160 -99 27 -187 52 -196 55 -10 3 -59 -27 -125 -78z
m466 -142 c686 -192 1093 -306 1095 -309 1 -1 15 -76 33 -167 29 -151 205
-1070 270 -1408 15 -78 25 -146 22 -151 -4 -7 -70 -58 -176 -138 -39 -30 -149
-114 -344 -263 -89 -69 -206 -158 -259 -199 -53 -40 -162 -124 -243 -187
l-148 -113 -102 29 c-57 16 -330 92 -608 170 -523 146 -713 200 -718 204 -3 4
-332 1704 -332 1719 0 5 67 58 250 198 47 36 184 141 305 234 531 408 621 474
635 470 8 -2 152 -42 320 -89z m1899 -2257 c196 -55 397 -111 446 -125 50 -13
135 -37 190 -52 55 -16 170 -48 256 -72 l155 -44 44 -226 c23 -124 54 -281 67
-350 13 -69 30 -159 38 -200 48 -255 176 -918 181 -932 3 -12 -42 -52 -173
-152 -217 -166 -260 -199 -488 -373 -99 -76 -229 -176 -290 -223 -60 -46 -135
-104 -167 -128 l-56 -44 -179 51 c-182 51 -509 143 -828 233 -333 93 -418 118
-420 120 -1 2 -55 278 -119 613 -65 336 -139 722 -166 860 -27 137 -46 252
-42 256 14 11 140 107 242 185 277 211 655 501 803 616 62 48 121 87 131 88
10 0 179 -45 375 -101z m-2738 -529 c456 -129 593 -168 819 -230 102 -28 194
-55 204 -59 22 -8 14 27 121 -531 35 -184 80 -418 100 -520 20 -102 42 -216
49 -255 7 -38 28 -146 45 -238 18 -93 30 -174 28 -181 -3 -7 -83 -71 -178
-144 -96 -72 -221 -168 -279 -212 -58 -45 -186 -143 -285 -218 -99 -74 -182
-139 -185 -142 -3 -4 -58 -46 -122 -94 l-118 -88 -47 11 c-48 12 -80 21 -518
144 -126 36 -338 95 -470 132 -132 37 -274 77 -315 89 l-75 23 -31 154 c-17
85 -43 219 -58 299 -16 80 -39 199 -51 265 -13 66 -33 172 -45 235 -20 107
-104 540 -134 691 -9 48 -10 70 -2 80 10 14 308 244 359 279 13 8 65 49 117
90 52 41 105 82 116 90 26 18 343 261 469 359 50 38 100 70 111 70 12 1 181
-44 375 -99z"/>
</g>
</svg>
