<?xml version="1.0" standalone="no"?>
<!DOCTYPE svg PUBLIC "-//W3C//DTD SVG 20010904//EN"
 "http://www.w3.org/TR/2001/REC-SVG-20010904/DTD/svg10.dtd">
<svg version="1.0" xmlns="http://www.w3.org/2000/svg"
 width="495.000000pt" height="505.000000pt" viewBox="0 0 495.000000 505.000000"
 preserveAspectRatio="xMidYMid meet">

<g transform="translate(0.000000,505.000000) scale(0.100000,-0.100000)"
fill="#000000" stroke="none">
<path d="M1562 4848 c-138 -106 -371 -285 -518 -398 -147 -113 -274 -210 -281
-215 -15 -11 -19 10 93 -570 14 -71 36 -184 49 -250 13 -66 36 -181 50 -255
14 -74 39 -204 55 -288 17 -84 30 -155 30 -156 0 -2 -225 -177 -501 -387 -275
-211 -507 -389 -515 -396 -14 -10 -11 -33 20 -190 38 -191 202 -1039 240
-1241 12 -67 25 -124 27 -125 4 -4 445 -128 839 -237 102 -29 243 -69 315 -90
l129 -39 94 72 c52 40 153 117 226 173 72 55 257 197 412 315 154 119 285 219
292 222 11 8 434 -107 1206 -328 l50 -14 55 42 c31 23 148 113 261 199 113 87
315 242 450 345 135 104 258 198 273 210 l28 21 -15 69 c-9 37 -38 187 -66
333 -28 146 -62 321 -75 390 -21 107 -109 564 -134 698 -5 24 -13 48 -17 52
-5 5 -81 29 -169 53 -88 25 -272 77 -410 116 -137 38 -340 95 -450 126 -109
30 -202 58 -207 63 -7 7 -35 134 -63 287 -9 50 -23 122 -31 160 -20 102 -101
526 -118 620 -18 98 -74 392 -81 421 -5 24 19 16 -475 154 -567 158 -794 222
-805 226 -6 3 -125 -82 -263 -188z m446 38 c86 -25 240 -68 342 -96 102 -28
205 -57 230 -65 25 -7 131 -37 235 -66 105 -28 194 -55 198 -59 5 -4 33 -135
63 -291 51 -265 111 -574 184 -951 16 -87 30 -166 30 -177 0 -13 -44 -53 -136
-123 -75 -56 -177 -135 -228 -174 -50 -39 -207 -160 -349 -269 l-259 -198 -61
17 c-73 20 -576 161 -895 251 -123 34 -226 65 -229 69 -14 14 -279 1421 -270
1433 5 7 113 92 240 190 128 97 261 200 297 227 303 233 427 326 438 326 7 0
84 -20 170 -44z m1441 -1837 c128 -35 602 -169 671 -189 36 -10 148 -42 250
-70 101 -28 185 -52 186 -53 3 -3 274 -1413 274 -1426 0 -6 -35 -37 -77 -69
-43 -32 -206 -157 -363 -277 -157 -120 -341 -261 -409 -313 l-123 -95 -42 10
c-49 12 -962 268 -1081 303 -33 10 -63 24 -67 31 -9 17 -268 1376 -268 1405 0
16 32 46 116 110 361 276 746 572 794 610 30 24 57 43 59 44 3 0 39 -9 80 -21z
m-2194 -464 c294 -82 377 -106 530 -149 88 -25 234 -65 324 -90 90 -25 165
-47 167 -48 3 -4 75 -372 239 -1232 20 -103 35 -192 33 -196 -2 -5 -67 -58
-145 -117 -77 -59 -291 -223 -474 -363 -183 -140 -337 -258 -344 -262 -6 -4
-186 43 -400 103 -215 60 -471 132 -570 159 -99 28 -189 54 -201 59 -18 8 -26
33 -53 178 -18 92 -39 200 -46 238 -8 39 -37 189 -65 335 -28 146 -67 344 -85
440 -19 96 -37 191 -40 210 -6 35 -5 36 107 120 62 47 212 161 333 254 558
429 528 406 545 402 8 -3 74 -21 145 -41z"/>
</g>
</svg>
